<svg width="18" height="16" viewBox="0 0 18 16" fill="none" xmlns="http://www.w3.org/2000/svg">
<path d="M17.8961 3.05154C17.7931 2.91207 17.6273 2.82586 17.4472 2.81859L6.28162 2.36403C5.96126 2.35079 5.69355 2.58439 5.67986 2.88555C5.66624 3.1866 5.91317 3.44097 6.232 3.4539L16.6416 3.87773L14.5949 9.90915H5.48658L3.84103 1.44676C3.80486 1.26129 3.67004 1.10657 3.4841 1.03767L0.788965 0.0376529C0.491928 -0.0721831 0.156743 0.065616 0.0400874 0.345817C-0.0763672 0.626171 0.0694931 0.942934 0.36637 1.05311L2.76277 1.94226L4.43736 10.5532C4.48784 10.812 4.72671 11.0001 5.0055 11.0001H5.28328L4.64896 12.6641C4.59587 12.8035 4.61775 12.9583 4.7081 13.0794C4.79833 13.2006 4.94508 13.2726 5.10173 13.2726H5.54664C5.27095 13.5624 5.10173 13.944 5.10173 14.3636C5.10173 15.2659 5.87913 16 6.83433 16C7.78953 16 8.56693 15.2659 8.56693 14.3636C8.56693 13.944 8.39771 13.5624 8.12206 13.2726H11.8996C11.6237 13.5624 11.4546 13.944 11.4546 14.3636C11.4546 15.2659 12.2318 16 13.1872 16C14.1426 16 14.9198 15.2659 14.9198 14.3636C14.9198 13.944 14.7506 13.5624 14.475 13.2726H15.016C15.2819 13.2726 15.4973 13.0691 15.4973 12.8181C15.4973 12.567 15.2819 12.3636 15.016 12.3636H5.78652L6.30624 10.9999H15.016C15.2672 10.9999 15.4894 10.8467 15.5659 10.621L17.9723 3.52988C18.0275 3.36804 17.9992 3.19109 17.8961 3.05154ZM6.83437 15.091C6.40968 15.091 6.0643 14.7649 6.0643 14.3638C6.0643 13.9627 6.40968 13.6365 6.83437 13.6365C7.25906 13.6365 7.6044 13.9627 7.6044 14.3638C7.6044 14.7649 7.25906 15.091 6.83437 15.091ZM13.1872 15.091C12.7625 15.091 12.4171 14.7649 12.4171 14.3638C12.4171 13.9627 12.7625 13.6365 13.1872 13.6365C13.6119 13.6365 13.9572 13.9627 13.9572 14.3638C13.9572 14.7649 13.6119 15.091 13.1872 15.091Z" fill="#1B1A17"/>
</svg>
