<svg width="21" height="18" viewBox="0 0 21 18" fill="none" xmlns="http://www.w3.org/2000/svg">
<path d="M19.9686 5.77095C19.6912 3.00614 17.5306 1.00021 14.8266 1.00021C13.0251 1.00021 11.3757 1.87824 10.4475 3.28546C9.5278 1.86003 7.94595 0.999878 6.17336 0.999878C3.4697 0.999878 1.30868 3.0058 1.0317 5.77061C1.00978 5.89274 0.919889 6.53546 1.19321 7.58359C1.58712 9.0954 2.49699 10.4705 3.82378 11.5594L10.4431 17L17.1761 11.5597C18.5029 10.4705 19.4128 9.09573 19.8067 7.58359C20.08 6.53579 19.9902 5.89307 19.9686 5.77095ZM19.0953 7.43202C18.7357 8.81277 17.9022 10.0707 16.6872 11.0676L10.4475 16.1097L4.31489 11.0689C3.09772 10.0701 2.26459 8.81244 1.90466 7.43168C1.64595 6.43981 1.75229 5.8795 1.75265 5.87586L1.75813 5.84243C1.99565 3.42016 3.85229 1.66179 6.17336 1.66179C7.88602 1.66179 9.39369 2.61495 10.1092 4.14893L10.4457 4.87141L10.7822 4.14893C11.4864 2.63844 13.0737 1.66212 14.8269 1.66212C17.1476 1.66212 19.0047 3.42049 19.2469 5.8742C19.2476 5.8795 19.354 6.44014 19.0953 7.43202Z" fill="#1B1A17" stroke="#1B1A17" stroke-width="0.75"/>
</svg>
