<svg width="16" height="16" viewBox="0 0 16 16" fill="none" xmlns="http://www.w3.org/2000/svg">
<path d="M15.8041 14.8636L11.9576 11.0171C12.911 9.85463 13.4857 8.36564 13.4857 6.74277C13.4857 3.0203 10.4653 -0.00012207 6.74286 -0.00012207C3.01714 -0.00012207 0 3.0203 0 6.74277C0 10.4652 3.01714 13.4857 6.74286 13.4857C8.36571 13.4857 9.85143 12.9142 11.0139 11.9608L14.8604 15.804C15.1216 16.0653 15.5429 16.0653 15.8041 15.804C16.0653 15.5461 16.0653 15.1216 15.8041 14.8636ZM6.74286 12.1436C3.76163 12.1436 1.33878 9.72075 1.33878 6.74277C1.33878 3.7648 3.76163 1.33866 6.74286 1.33866C9.72082 1.33866 12.1469 3.7648 12.1469 6.74277C12.1469 9.72075 9.72082 12.1436 6.74286 12.1436Z" fill="#1B1A17"/>
</svg>
